<svg width="171" height="59" viewBox="0 0 171 59" fill="none" xmlns="http://www.w3.org/2000/svg">
<path d="M90.2714 47.7594C88.556 47.7594 86.9742 47.4785 85.519 46.9169C84.0638 46.3552 82.8073 45.5662 81.7424 44.5498C80.6776 43.5335 79.849 42.3366 79.2533 40.9591C78.6575 39.5817 78.3562 38.0772 78.3562 36.4457C78.3562 34.8141 78.6541 33.3096 79.2533 31.9322C79.849 30.5548 80.6845 29.3579 81.7596 28.3415C82.8347 27.3251 84.0981 26.5361 85.5532 25.9745C87.0084 25.4128 88.5902 25.1319 90.3056 25.1319C91.9559 25.1319 93.507 25.4027 94.9621 25.941C96.4173 26.4826 97.643 27.2917 98.6394 28.3716L97.1089 29.8661C96.1742 28.9333 95.1436 28.2613 94.0171 27.8467C92.8872 27.4355 91.6718 27.2282 90.3707 27.2282C89.0045 27.2282 87.7343 27.4555 86.5633 27.9136C85.3923 28.3683 84.372 29.0169 83.5023 29.8527C82.6361 30.6885 81.9547 31.6647 81.4685 32.7781C80.9789 33.8914 80.7358 35.115 80.7358 36.449C80.7358 37.783 80.9789 39.01 81.4685 40.1199C81.9581 41.2333 82.6361 42.2062 83.5023 43.0453C84.372 43.8812 85.3889 44.5298 86.5633 44.9844C87.7343 45.4391 89.0045 45.6698 90.3707 45.6698C91.6718 45.6698 92.8872 45.4559 94.0171 45.0346C95.147 44.61 96.1776 43.9313 97.1089 42.9985L98.6394 44.493C97.6396 45.5729 96.4139 46.3886 94.9621 46.9403C93.507 47.4919 91.9457 47.7661 90.2748 47.7661L90.2714 47.7594ZM102.18 47.5688L112.599 25.3158H114.975L125.394 47.5688H122.853L113.28 26.6832H114.256L104.683 47.5688H102.176H102.18ZM106.282 41.6244L106.997 39.7188H120.248L120.963 41.6244H106.282ZM131.8 47.5688V25.3158H140.329C142.26 25.3158 143.921 25.6167 145.311 26.2219C146.701 26.827 147.769 27.6963 148.519 28.8296C149.269 29.963 149.642 31.3371 149.642 32.9452C149.642 34.5132 149.269 35.8639 148.519 36.9973C147.769 38.1307 146.701 38.9999 145.311 39.6051C143.921 40.2102 142.26 40.5111 140.329 40.5111H133.135L134.21 39.4312V47.5688H131.8ZM147.362 47.5688L141.5 39.4948H144.105L149.998 47.5688H147.362ZM134.21 39.6218L133.135 38.5085H140.264C142.544 38.5085 144.273 38.0204 145.458 37.0475C146.643 36.0712 147.231 34.7071 147.231 32.9452C147.231 31.1666 146.639 29.7892 145.458 28.8129C144.273 27.8367 142.544 27.3519 140.264 27.3519H133.135L134.21 26.2386V39.6218Z" fill="#F27635"/>
<path d="M157.021 35.2689H169.066V37.2715H157.021V35.2689ZM157.25 45.5361H170.99L170.956 47.5722H154.874L154.905 25.3192H170.5V27.3553H157.284L157.25 45.5395V45.5361Z" fill="#223A9C"/>
<path d="M18.4348 26.8939L40.7997 36.8803L40.1115 38.3647L17.7466 28.3783L17.3254 27.3218L18.4382 26.8939H18.4348ZM17.322 27.3218L17.6507 26.5428L18.4313 26.8905L17.3186 27.3185L17.322 27.3218ZM8.58077 47.9065L17.322 27.3218L18.8559 27.947L10.1147 48.5317L9.34772 49.0332L8.58077 47.9065ZM10.1147 48.5317L9.9024 49.0332H9.34772L10.1147 48.5317ZM1.27416 47.405H9.34772V49.0332H1.27416L0.510632 47.8965L1.27416 47.405ZM1.27416 49.0332H0.0107422L0.510632 47.8965L1.27416 49.0332ZM16.1442 16.4795L2.03769 48.5417L0.510632 47.8965L14.6171 15.8342L15.7778 15.4431L16.1407 16.4828L16.1442 16.4795ZM14.6171 15.8342L14.98 15.0118L15.7812 15.4397L14.6205 15.8309L14.6171 15.8342ZM40.0533 30.3174L14.9835 16.874L15.7812 15.4431L40.8511 28.8865L40.8819 30.2973L40.0533 30.3141V30.3174ZM40.8819 30.3007L40.4744 30.5447L40.0533 30.3207L40.8819 30.304V30.3007ZM64.4554 16.319L40.8819 30.3007L40.0225 28.9065L63.596 14.9249L64.791 15.3027L64.4554 16.319ZM63.596 14.9249L64.4178 14.4367L64.791 15.3027L63.596 14.9249ZM77.367 48.5417L63.2605 15.9412L64.791 15.3027L78.8975 47.9031L78.1339 49.0365L77.3704 48.5417H77.367ZM78.8975 47.9031L79.3871 49.0365H78.1305L78.894 47.9031H78.8975ZM70.0569 47.4083H78.1305V49.0365H70.0569L69.2866 48.5317L70.0569 47.4083ZM70.0569 49.0365H69.4988L69.2866 48.5317L70.0569 49.0365ZM61.9902 26.7869L70.8273 47.9098L69.29 48.5283L60.4529 27.4054L60.8398 26.3723L61.9902 26.7869ZM60.8398 26.3723L61.6444 25.9644L61.9902 26.7869L60.8398 26.3723ZM40.0738 36.9004L60.8398 26.3723L61.6033 27.82L40.8374 38.348L40.1115 38.3647L40.0738 36.9004ZM40.8374 38.348L40.4778 38.5285L40.1115 38.3647L40.8374 38.348Z" fill="#FEFEFE"/>
<path fill-rule="evenodd" clip-rule="evenodd" d="M40.454 37.6258L18.0891 27.6361L9.34785 48.2208H1.27429L15.3808 16.1585L40.454 29.6019L64.0242 15.6203L78.1306 48.2208H70.0571L61.22 27.0978L40.454 37.6258Z" fill="#223A9C"/>
<path fill-rule="evenodd" clip-rule="evenodd" d="M22.1395 6.86088C16.7057 2.65167 12.8949 7.73682 19.0203 7.78697C19.9653 7.79366 19.8112 7.63652 20.4515 8.06781C21.0746 9.8197 16.3976 8.2216 15.9148 11.5214C15.7025 12.9624 15.8429 14.1025 17.007 14.7243C17.8288 15.1623 19.3216 16.0215 20.1776 16.2355C19.8352 15.6069 18.4006 13.9253 18.1575 13.0961C18.089 12.8621 18.0513 12.8387 18.0787 12.5345C18.1712 11.5649 18.0342 12.2068 18.3732 11.8625C19.9893 10.4115 32.9761 16.9509 26.7035 19.5688L39.6904 26.3757C41.0154 26.9641 44.0113 24.7609 45.9698 23.6175C47.2675 22.8586 51.4036 20.7322 51.9719 20C50.1333 17.3655 52.1123 16.1185 55.0637 14.7444C56.0258 14.2964 59.5387 12.9223 60.6994 13.1429C61.8875 13.3703 61.4527 13.5842 61.5212 14.6976C62.0827 14.38 62.9866 13.845 63.6406 13.5776C63.531 12.1399 62.9147 11.5047 61.6547 11.0032C60.1996 10.4248 59.0217 10.7625 59.0971 9.30483C61.035 9.15104 63.1373 10.1273 63.6577 7.95079C63.0311 6.84416 61.7335 6.71043 60.2749 6.91437C58.5595 7.15509 58.2856 7.83378 57.3303 8.13467C56.8578 7.64321 56.4572 7.0481 56.0635 6.52655C55.5636 5.86457 55.1493 5.43998 54.6494 4.76129C50.8523 -0.390735 46.432 0.565448 39.7349 0.311357C36.2596 0.177625 31.1443 -0.544527 28.3538 0.812852C25.4298 2.2371 23.8343 5.41323 22.1395 6.85753V6.86088ZM49.0787 17.0914C46.254 16.7035 43.6964 20.7356 37.0882 19.2311C34.3662 18.6126 33.8424 17.429 31.8223 16.5932C28.3196 15.1389 29.3673 18.7396 30.439 20.3176C34.8421 26.7936 52.4958 24.3129 49.0787 17.0914ZM23.2009 7.56297C25.9366 9.68596 47.312 9.9668 52.7491 9.69934C58.1418 9.43187 54.9028 6.96452 53.2388 5.15914C47.7605 -0.775214 47.8701 2.27053 36.5986 1.34778C32.935 1.04688 30.5999 0.257865 27.854 2.24044C26.7275 3.05286 23.5467 6.09192 23.2009 7.56297Z" fill="#A6A8AB"/>
<path d="M71.4765 59C71.3442 59 71.2339 58.9504 71.1412 58.8513C71.0485 58.7521 71 58.6304 71 58.4862C71 58.3374 71.0485 58.2157 71.1412 58.1211C71.2339 58.0264 71.3486 57.9813 71.4765 57.9813C71.6089 57.9813 71.7192 58.0264 71.8119 58.1211C71.9045 58.2157 71.9487 58.3374 71.9487 58.4862C71.9487 58.6304 71.9001 58.7521 71.8119 58.8513C71.7192 58.9504 71.6045 59 71.4765 59ZM73.3826 59C73.2503 59 73.14 58.9504 73.0429 58.8513C72.9502 58.7521 72.9061 58.6304 72.9061 58.4862C72.9061 58.3374 72.9546 58.2157 73.0429 58.1211C73.1355 58.0264 73.2503 57.9813 73.3826 57.9813C73.515 57.9813 73.6253 58.0264 73.718 58.1211C73.8106 58.2157 73.8592 58.3374 73.8592 58.4862C73.8592 58.6304 73.8106 58.7521 73.718 58.8513C73.6253 58.9504 73.5106 59 73.3826 59ZM75.2887 59C75.1564 59 75.0461 58.9504 74.9534 58.8513C74.8608 58.7521 74.8166 58.6304 74.8166 58.4862C74.8166 58.3374 74.8608 58.2157 74.9534 58.1211C75.0461 58.0264 75.1608 57.9813 75.2887 57.9813C75.4211 57.9813 75.5314 58.0264 75.6241 58.1211C75.7167 58.2157 75.7609 58.3374 75.7609 58.4862C75.7609 58.6304 75.7167 58.7521 75.6241 58.8513C75.5314 58.9504 75.4167 59 75.2887 59ZM78.8759 59C78.4259 59 78.0244 58.8963 77.667 58.6845C77.3096 58.4726 77.0316 58.1797 76.8242 57.801C76.6213 57.4224 76.5198 56.9897 76.5198 56.4984C76.5198 55.9981 76.6213 55.5608 76.8242 55.1867C77.0272 54.8126 77.3096 54.5196 77.667 54.3123C78.0244 54.105 78.4259 53.9968 78.8759 53.9968C79.2907 53.9968 79.6613 54.0959 79.9878 54.2853C80.3143 54.4791 80.5747 54.763 80.7688 55.1326C80.9629 55.5023 81.06 55.9575 81.06 56.4939C81.06 57.0213 80.9629 57.4765 80.7732 57.8506C80.5835 58.2247 80.3232 58.5087 79.9967 58.707C79.6701 58.9053 79.2951 59 78.8759 59ZM78.9201 58.4095C79.2554 58.4095 79.5554 58.3284 79.8246 58.1706C80.0937 58.0129 80.3011 57.7875 80.4555 57.499C80.61 57.2061 80.685 56.8725 80.685 56.4939C80.685 56.1062 80.6056 55.7682 80.4555 55.4842C80.3011 55.1957 80.0937 54.9749 79.8246 54.8171C79.5598 54.6594 79.2554 54.5782 78.9201 54.5782C78.5891 54.5782 78.2935 54.6594 78.0288 54.8171C77.764 54.9749 77.5567 55.2003 77.3978 55.4842C77.2434 55.7727 77.164 56.1062 77.164 56.4939C77.164 56.8725 77.2434 57.2106 77.3978 57.499C77.5522 57.7875 77.764 58.0129 78.0288 58.1706C78.2935 58.3284 78.5891 58.4095 78.9201 58.4095ZM80.7026 58.9504V57.472L80.7644 56.4804L80.6761 55.4887V52.009H81.3159V58.9504H80.7026ZM83.0941 58.9504V54.0373H83.7074V55.376L83.6456 55.1417C83.778 54.7675 83.9986 54.4836 84.3119 54.2853C84.6251 54.0869 85.009 53.9923 85.4723 53.9923V54.6368C85.4502 54.6368 85.4238 54.6368 85.4017 54.6323C85.3796 54.6278 85.3532 54.6278 85.3311 54.6278C84.8325 54.6278 84.4442 54.7856 84.1618 55.1011C83.8795 55.4166 83.7383 55.8628 83.7383 56.4443V58.9504H83.0985H83.0941ZM86.6371 58.9504L86.6283 54.0373H87.2681V58.9504H86.6371ZM86.9504 52.9556C86.818 52.9556 86.7077 52.9105 86.6195 52.8158C86.5312 52.7212 86.4827 52.6085 86.4827 52.4778C86.4827 52.3471 86.5268 52.2344 86.6195 52.1442C86.7077 52.0541 86.8225 52.009 86.9504 52.009C87.0828 52.009 87.1931 52.0541 87.2857 52.1397C87.374 52.2254 87.4225 52.3335 87.4225 52.4688C87.4225 52.604 87.3784 52.7212 87.2902 52.8158C87.2019 52.9105 87.0916 52.9556 86.9548 52.9556H86.9504ZM90.2596 58.9504L88.1638 54.0373H88.83L90.7538 58.5943H90.4405L92.3908 54.0373H93.0217L90.9171 58.9504H90.2596ZM102.671 58.9504L100.889 54.0373H101.502L103.121 58.5943H102.843L104.507 54.0373H105.054L106.7 58.5943H106.422L108.068 54.0373H108.654L106.863 58.9504H106.259L104.675 54.6639H104.864L103.271 58.9504H102.667H102.671ZM109.625 58.9504L109.616 54.0373H110.256V58.9504H109.625ZM109.938 52.9556C109.806 52.9556 109.696 52.9105 109.603 52.8158C109.515 52.7212 109.471 52.6085 109.471 52.4778C109.471 52.3471 109.515 52.2344 109.603 52.1442C109.691 52.0541 109.806 52.009 109.938 52.009C110.071 52.009 110.181 52.0541 110.274 52.1397C110.362 52.2254 110.406 52.3335 110.406 52.4688C110.406 52.604 110.362 52.7212 110.274 52.8158C110.185 52.9105 110.075 52.9556 109.938 52.9556ZM113.526 59C113.08 59 112.74 58.8738 112.502 58.6259C112.264 58.378 112.14 58.0219 112.14 57.5666V52.9556H112.78V57.5306C112.78 57.8191 112.851 58.0399 112.992 58.1932C113.133 58.3509 113.336 58.4276 113.601 58.4276C113.883 58.4276 114.117 58.3419 114.302 58.1751L114.527 58.6529C114.399 58.7701 114.249 58.8603 114.073 58.9144C113.896 58.9684 113.715 59 113.53 59H113.526ZM111.293 54.5918V54.0373H114.218V54.5918H111.293ZM118.092 53.9923C118.476 53.9923 118.816 54.0689 119.103 54.2221C119.394 54.3754 119.619 54.6053 119.787 54.9208C119.95 55.2318 120.034 55.6239 120.034 56.1017V58.9549H119.394V56.1694C119.394 55.651 119.27 55.2589 119.019 54.9929C118.772 54.727 118.419 54.5963 117.973 54.5963C117.638 54.5963 117.347 54.6684 117.095 54.8081C116.848 54.9478 116.654 55.1507 116.522 55.4166C116.385 55.6826 116.319 56.0026 116.319 56.3767V58.9594H115.679V52.018H116.319V55.3941L116.191 55.1417C116.341 54.7856 116.579 54.5061 116.91 54.3033C117.241 54.1005 117.633 53.9968 118.088 53.9968L118.092 53.9923ZM123.687 58.9955C123.224 58.991 122.813 58.8783 122.456 58.6664C122.094 58.4546 121.812 58.1616 121.604 57.783C121.397 57.4044 121.296 56.9717 121.296 56.4894C121.291 55.9981 121.393 55.5654 121.604 55.1957C121.816 54.8261 122.103 54.5332 122.46 54.3168C122.818 54.1005 123.228 53.9923 123.687 53.9923C124.155 53.9923 124.57 54.1005 124.927 54.3168C125.289 54.5332 125.571 54.8261 125.779 55.2003C125.986 55.5744 126.087 56.0071 126.087 56.4939C126.092 56.9807 125.995 57.4134 125.787 57.7875C125.58 58.1661 125.293 58.4591 124.927 58.671C124.561 58.8828 124.146 58.991 123.687 59V58.9955ZM123.687 58.405C124.027 58.405 124.331 58.3239 124.596 58.1661C124.861 58.0084 125.068 57.783 125.223 57.4945C125.377 57.2015 125.456 56.868 125.461 56.4894C125.456 56.1017 125.377 55.7637 125.223 55.4797C125.068 55.1912 124.861 54.9704 124.596 54.8126C124.331 54.6549 124.027 54.5737 123.687 54.5737C123.356 54.5737 123.061 54.6549 122.796 54.8126C122.531 54.9704 122.324 55.1958 122.165 55.4797C122.01 55.7682 121.927 56.1017 121.922 56.4894C121.927 56.868 122.01 57.2061 122.165 57.4945C122.319 57.783 122.531 58.0084 122.791 58.1706C123.052 58.3329 123.352 58.4095 123.687 58.405ZM129.352 58.9955C128.951 58.9955 128.598 58.9189 128.302 58.7611C128.002 58.6033 127.768 58.369 127.605 58.058C127.442 57.7469 127.358 57.3548 127.358 56.8905V54.0373H127.998V56.8139C127.998 57.3368 128.121 57.7334 128.373 57.9994C128.62 58.2653 128.969 58.396 129.419 58.396C129.75 58.396 130.036 58.3239 130.279 58.1842C130.522 58.0444 130.707 57.8416 130.835 57.5712C130.963 57.3052 131.029 56.9807 131.029 56.6066V54.0328H131.669V58.9459H131.06V57.5982L131.157 57.8416C131.007 58.2022 130.773 58.4862 130.46 58.689C130.147 58.8918 129.776 58.991 129.357 58.991L129.352 58.9955ZM134.938 58.9955C134.497 58.9955 134.153 58.8693 133.915 58.6214C133.677 58.3735 133.553 58.0174 133.553 57.5621V52.9511H134.193V57.5261C134.193 57.8146 134.263 58.0354 134.405 58.1887C134.546 58.3464 134.749 58.4231 135.013 58.4231C135.296 58.4231 135.53 58.3374 135.715 58.1706L135.94 58.6484C135.812 58.7656 135.662 58.8558 135.486 58.9099C135.309 58.9639 135.128 58.9955 134.943 58.9955H134.938ZM132.71 54.5872V54.0328H135.636V54.5872H132.71ZM140.418 58.9459L138.636 54.0328H139.249L140.869 58.5898H140.591L142.254 54.0328H142.801L144.447 58.5898H144.169L145.815 54.0328H146.402L144.61 58.9459H144.006L142.422 54.6594H142.611L141.019 58.9459H140.414H140.418ZM149.155 58.991C148.691 58.9865 148.281 58.8738 147.924 58.6619C147.562 58.4501 147.28 58.1571 147.072 57.7785C146.865 57.3999 146.763 56.9672 146.763 56.4849C146.759 55.9936 146.86 55.5609 147.072 55.1912C147.284 54.8216 147.571 54.5287 147.928 54.3123C148.286 54.0959 148.696 53.9878 149.155 53.9878C149.622 53.9878 150.037 54.0959 150.395 54.3123C150.756 54.5287 151.039 54.8216 151.246 55.1957C151.454 55.5699 151.555 56.0026 151.555 56.4894C151.559 56.9762 151.462 57.4089 151.255 57.783C151.048 58.1616 150.761 58.4546 150.395 58.6664C150.028 58.8783 149.614 58.9865 149.155 58.9955V58.991ZM149.155 58.4005C149.495 58.4005 149.799 58.3194 150.064 58.1616C150.328 58.0039 150.536 57.7785 150.69 57.49C150.845 57.197 150.924 56.8635 150.929 56.4849C150.924 56.0972 150.845 55.7592 150.69 55.4752C150.536 55.1867 150.328 54.9659 150.064 54.8081C149.799 54.6504 149.495 54.5692 149.155 54.5692C148.824 54.5692 148.528 54.6504 148.264 54.8081C147.999 54.9659 147.791 55.1912 147.633 55.4752C147.478 55.7637 147.394 56.0972 147.39 56.4849C147.394 56.8635 147.478 57.2015 147.633 57.49C147.787 57.7785 147.999 58.0039 148.259 58.1661C148.519 58.3284 148.819 58.405 149.155 58.4005ZM152.87 58.9414V54.0283H153.483V55.367L153.421 55.1326C153.554 54.7585 153.774 54.4746 154.088 54.2762C154.401 54.0779 154.785 53.9833 155.248 53.9833V54.6278C155.226 54.6278 155.2 54.6278 155.178 54.6233C155.156 54.6188 155.129 54.6188 155.107 54.6188C154.608 54.6188 154.22 54.7766 153.938 55.0921C153.655 55.4076 153.514 55.8538 153.514 56.4353V58.9414H152.874H152.87ZM156.404 58.9414V54.0283H157.017V55.367L156.956 55.1326C157.088 54.7585 157.309 54.4746 157.622 54.2762C157.935 54.0779 158.319 53.9833 158.782 53.9833V54.6278C158.76 54.6278 158.734 54.6278 158.712 54.6233C158.69 54.6188 158.663 54.6188 158.641 54.6188C158.143 54.6188 157.754 54.7766 157.472 55.0921C157.19 55.4076 157.048 55.8538 157.048 56.4353V58.9414H156.409H156.404ZM159.947 58.9414L159.938 54.0283H160.578V58.9414H159.947ZM160.261 52.9466C160.128 52.9466 160.018 52.9015 159.925 52.8068C159.837 52.7122 159.793 52.5995 159.793 52.4688C159.793 52.3381 159.837 52.2254 159.925 52.1352C160.013 52.0451 160.128 52 160.261 52C160.393 52 160.503 52.0451 160.591 52.1307C160.68 52.2164 160.728 52.3245 160.728 52.4598C160.728 52.595 160.684 52.7122 160.596 52.8068C160.508 52.9015 160.397 52.9466 160.261 52.9466ZM164.364 58.991C163.874 58.991 163.442 58.8828 163.067 58.6664C162.696 58.4501 162.405 58.1571 162.193 57.7785C161.986 57.3999 161.88 56.9672 161.88 56.4849C161.88 55.9981 161.981 55.5699 162.18 55.1912C162.383 54.8171 162.656 54.5241 163.009 54.3078C163.362 54.0914 163.755 53.9833 164.192 53.9833C164.633 53.9833 165.03 54.0869 165.374 54.2988C165.719 54.5061 165.992 54.7991 166.186 55.1777C166.385 55.5563 166.482 55.9891 166.482 56.4849C166.482 56.5164 166.482 56.548 166.477 56.584C166.473 56.6201 166.473 56.6562 166.473 56.6922H162.361V56.1964H166.129L165.877 56.3947C165.877 56.0386 165.802 55.7231 165.657 55.4437C165.511 55.1642 165.308 54.9478 165.061 54.7946C164.81 54.6368 164.518 54.5602 164.187 54.5602C163.861 54.5602 163.574 54.6368 163.314 54.7946C163.058 54.9523 162.855 55.1687 162.709 55.4482C162.564 55.7276 162.493 56.0522 162.493 56.4127V56.5164C162.493 56.8905 162.573 57.2196 162.731 57.5035C162.89 57.7875 163.111 58.0084 163.398 58.1661C163.684 58.3239 164.007 58.405 164.373 58.405C164.66 58.405 164.929 58.3509 165.18 58.2473C165.427 58.1436 165.643 57.9813 165.824 57.7605L166.186 58.1887C165.979 58.4501 165.714 58.6484 165.401 58.7882C165.088 58.9234 164.739 58.9955 164.364 58.9955V58.991ZM169.059 58.991C168.67 58.991 168.3 58.9324 167.951 58.8197C167.603 58.7025 167.329 58.5583 167.13 58.387L167.417 57.8641C167.607 58.0129 167.854 58.1436 168.154 58.2518C168.454 58.3599 168.767 58.414 169.098 58.414C169.548 58.414 169.87 58.3419 170.069 58.1932C170.268 58.0444 170.365 57.8506 170.365 57.6072C170.365 57.4269 170.312 57.2827 170.197 57.1835C170.087 57.0798 169.941 57.0032 169.76 56.9491C169.579 56.895 169.381 56.85 169.16 56.8139C168.939 56.7778 168.719 56.7328 168.498 56.6832C168.278 56.6336 168.079 56.5615 167.898 56.4623C167.717 56.3632 167.572 56.2325 167.461 56.0657C167.351 55.8989 167.294 55.6735 167.294 55.3941C167.294 55.1281 167.364 54.8847 167.51 54.6729C167.655 54.461 167.867 54.2943 168.145 54.1726C168.423 54.0509 168.763 53.9878 169.164 53.9878C169.469 53.9878 169.778 54.0283 170.082 54.114C170.387 54.1996 170.643 54.3078 170.837 54.4475L170.559 54.9794C170.347 54.8307 170.122 54.7225 169.884 54.6549C169.645 54.5873 169.403 54.5557 169.164 54.5557C168.737 54.5557 168.423 54.6323 168.225 54.7856C168.022 54.9388 167.925 55.1326 167.925 55.3715C167.925 55.5563 167.982 55.7051 168.092 55.8133C168.203 55.9169 168.348 56.0026 168.534 56.0612C168.714 56.1198 168.917 56.1694 169.134 56.2054C169.354 56.2415 169.57 56.2865 169.791 56.3406C170.012 56.3947 170.21 56.4668 170.391 56.557C170.576 56.6471 170.722 56.7733 170.832 56.9401C170.943 57.1069 171 57.3232 171 57.5892C171 57.8777 170.925 58.1256 170.771 58.3329C170.616 58.5402 170.396 58.7025 170.104 58.8197C169.813 58.9369 169.46 58.991 169.045 58.991H169.059ZM95.925 58.991C95.4352 58.991 95.0028 58.8828 94.6278 58.6664C94.2572 58.4501 93.9659 58.1571 93.7542 57.7785C93.5468 57.3999 93.4409 56.9672 93.4409 56.4849C93.4409 55.9981 93.5424 55.5699 93.7409 55.1912C93.9439 54.8171 94.2174 54.5241 94.5704 54.3078C94.9234 54.0914 95.3161 53.9833 95.7529 53.9833C96.1941 53.9833 96.5913 54.0869 96.9354 54.2988C97.2796 54.5061 97.5531 54.7991 97.7473 55.1777C97.9458 55.5563 98.0429 55.9891 98.0429 56.4849C98.0429 56.5164 98.0429 56.548 98.0385 56.584C98.0341 56.6201 98.0341 56.6562 98.0341 56.6922H93.9218V56.1964H97.6899L97.4384 56.3947C97.4384 56.0386 97.3634 55.7231 97.2178 55.4437C97.0722 55.1642 96.8692 54.9478 96.6221 54.7946C96.3706 54.6368 96.0794 54.5602 95.7485 54.5602C95.422 54.5602 95.1352 54.6368 94.8749 54.7946C94.619 54.9523 94.416 55.1687 94.2704 55.4482C94.1248 55.7276 94.0542 56.0522 94.0542 56.4127V56.5164C94.0542 56.8905 94.1336 57.2196 94.2924 57.5035C94.4513 57.7875 94.6719 58.0084 94.9587 58.1661C95.2455 58.3239 95.5676 58.405 95.9338 58.405C96.2206 58.405 96.4898 58.3509 96.7413 58.2473C96.9884 58.1436 97.2046 57.9813 97.3855 57.7605L97.7473 58.1887C97.5399 58.4501 97.2752 58.6484 96.9619 58.7882C96.6486 58.9234 96.3 58.9955 95.925 58.9955V58.991Z" fill="#373435"/>
</svg>
